{
  "source": "C:\\Users\\Peter\\Desktop\\stuff\\MIUN\\quantitative_research\\video_compression\\videos\\BVI-HD\\BVI-HD_CDVL_videos\\ORIG\\CalmingWater_1920x1080_60fps.mp4",
  "output": "C:\\Users\\Peter\\Desktop\\stuff\\MIUN\\quantitative_research\\video_compression\\compressed_videos\\BVI-HD\\vp9\\8\\CalmingWater_1920x1080_60fps_vp9.webm",
  "codec": "vp9",
  "ok": "Input #0, mov,mp4,m4a,3gp,3g2,mj2, from 'C:\\Users\\Peter\\Desktop\\stuff\\MIUN\\quantitative_research\\video_compression\\videos\\BVI-HD\\BVI-HD_CDVL_videos\\ORIG\\CalmingWater_1920x1080_60fps.mp4':\n  Metadata:\n    major_brand     : isom\n    minor_version   : 512\n    compatible_brands: isomiso2avc1mp41\n    encoder         : Lavf54.28.101\n  Duration: 00:00:05.00, start: 0.000000, bitrate: 623787 kb/s\n  Stream #0:0[0x1](und): Video: h264 (High 4:4:4 Predictive) (avc1 / 0x31637661), yuv420p(progressive), 1920x1080, 623782 kb/s, 60 fps, 60 tbr, 60 tbn (default)\n    Metadata:\n      handler_name    : VideoHandler\n      vendor_id       : [0][0][0][0]\n[out#0/webm @ 000001ee13409040] Codec AVOption b:a (set bitrate (in bits/s)) has not been used for any stream. The most likely reason is either wrong type (e.g. a video option with no video streams) or that it is a private option of some decoder which was not actually used for any stream.\nStream mapping:\n  Stream #0:0 -> #0:0 (h264 (native) -> vp9 (libvpx-vp9))\nPress [q] to stop, [?] for help\n[libvpx-vp9 @ 000001ee13ee0640] v1.15.2-100-g40561f514\nOutput #0, webm, to 'C:\\Users\\Peter\\Desktop\\stuff\\MIUN\\quantitative_research\\video_compression\\compressed_videos\\BVI-HD\\vp9\\8\\CalmingWater_1920x1080_60fps_vp9.webm':\n  Metadata:\n    major_brand     : isom\n    minor_version   : 512\n    compatible_brands: isomiso2avc1mp41\n    encoder         : Lavf62.3.100\n  Stream #0:0(und): Video: vp9, yuv420p(tv, progressive), 1920x1080, q=2-31, 8000 kb/s, 60 fps, 1k tbn (default)\n    Metadata:\n      encoder         : Lavc62.11.100 libvpx-vp9\n      handler_name    : VideoHandler\n      vendor_id       : [0][0][0][0]\n    Side data:\n      cpb: bitrate max/min/avg: 0/0/0 buffer size: 8000000 vbv_delay: N/A\nframe=    0 fps=0.0 q=0.0 size=       0KiB time=N/A bitrate=N/A speed=N/A elapsed=0:00:01.11    \nframe=    1 fps=0.6 q=12.0 size=       1KiB time=00:00:00.01 bitrate= 303.8kbits/s speed=0.00986x elapsed=0:00:01.69    \nframe=    3 fps=1.3 q=45.0 size=       1KiB time=00:00:00.05 bitrate= 101.3kbits/s speed=0.0224x elapsed=0:00:02.22    \nframe=    5 fps=1.8 q=57.0 size=       1KiB time=00:00:00.06 bitrate=  76.0kbits/s speed=0.0238x elapsed=0:00:02.79    \nframe=    6 fps=1.7 q=62.0 size=       1KiB time=00:00:00.10 bitrate=  50.6kbits/s speed=0.029x elapsed=0:00:03.44    \nframe=    8 fps=2.0 q=60.0 size=       1KiB time=00:00:00.13 bitrate=  38.0kbits/s speed=0.0329x elapsed=0:00:04.04    \nframe=   11 fps=2.4 q=59.0 size=       1KiB time=00:00:00.18 bitrate=  27.6kbits/s speed=0.0396x elapsed=0:00:04.63    \nframe=   12 fps=2.3 q=59.0 size=       1KiB time=00:00:00.20 bitrate=  25.3kbits/s speed=0.0384x elapsed=0:00:05.21    \nframe=   14 fps=2.4 q=59.0 size=       1KiB time=00:00:00.23 bitrate=  21.7kbits/s speed=0.0407x elapsed=0:00:05.73    \nframe=   16 fps=2.6 q=59.0 size=       1KiB time=00:00:00.26 bitrate=  19.0kbits/s speed=0.0425x elapsed=0:00:06.27    \nframe=   18 fps=2.6 q=59.0 size=       1KiB time=00:00:00.28 bitrate=  17.9kbits/s speed=0.0412x elapsed=0:00:06.87    \nframe=   19 fps=2.5 q=59.0 size=       1KiB time=00:00:00.31 bitrate=  16.0kbits/s speed=0.0424x elapsed=0:00:07.46    \nframe=   21 fps=2.6 q=59.0 size=       1KiB time=00:00:00.35 bitrate=  14.5kbits/s speed=0.0438x elapsed=0:00:07.99    \nframe=   23 fps=2.7 q=60.0 size=       1KiB time=00:00:00.38 bitrate=  13.2kbits/s speed=0.045x elapsed=0:00:08.52    \nframe=   25 fps=2.8 q=35.0 size=       1KiB time=00:00:00.41 bitrate=  12.2kbits/s speed=0.046x elapsed=0:00:09.06    \nframe=   26 fps=2.7 q=60.0 size=       1KiB time=00:00:00.43 bitrate=  11.7kbits/s speed=0.0447x elapsed=0:00:09.68    \nframe=   28 fps=2.7 q=60.0 size=       1KiB time=00:00:00.46 bitrate=  10.9kbits/s speed=0.0454x elapsed=0:00:10.27    \nframe=   30 fps=2.8 q=60.0 size=       1KiB time=00:00:00.50 bitrate=  10.1kbits/s speed=0.0461x elapsed=0:00:10.85    \nframe=   32 fps=2.8 q=60.0 size=       1KiB time=00:00:00.53 bitrate=   9.5kbits/s speed=0.0467x elapsed=0:00:11.42    \nframe=   34 fps=2.8 q=60.0 size=       1KiB time=00:00:00.56 bitrate=   8.9kbits/s speed=0.0473x elapsed=0:00:11.97    \nframe=   36 fps=2.9 q=60.0 size=       1KiB time=00:00:00.60 bitrate=   8.4kbits/s speed=0.0479x elapsed=0:00:12.51    \nframe=   37 fps=2.8 q=45.0 size=       1KiB time=00:00:00.61 bitrate=   8.2kbits/s speed=0.0471x elapsed=0:00:13.08    \nframe=   39 fps=2.8 q=59.0 size=       1KiB time=00:00:00.65 bitrate=   7.8kbits/s speed=0.0474x elapsed=0:00:13.70    \nframe=   41 fps=2.9 q=59.0 size=       1KiB time=00:00:00.68 bitrate=   7.4kbits/s speed=0.0479x elapsed=0:00:14.27    \nframe=   42 fps=2.8 q=59.0 size=       1KiB time=00:00:00.70 bitrate=   7.2kbits/s speed=0.0472x elapsed=0:00:14.82    \nframe=   44 fps=2.9 q=59.0 size=       1KiB time=00:00:00.73 bitrate=   6.9kbits/s speed=0.0477x elapsed=0:00:15.35    \nframe=   47 fps=3.0 q=60.0 size=       1KiB time=00:00:00.76 bitrate=   6.6kbits/s speed=0.0482x elapsed=0:00:15.90    \nframe=   48 fps=2.9 q=60.0 size=       1KiB time=00:00:00.80 bitrate=   6.3kbits/s speed=0.0486x elapsed=0:00:16.47    \nframe=   48 fps=2.8 q=60.0 size=       1KiB time=00:00:00.80 bitrate=   6.3kbits/s speed=0.0468x elapsed=0:00:17.07    \nframe=   50 fps=2.8 q=60.0 size=       1KiB time=00:00:00.83 bitrate=   6.1kbits/s speed=0.0473x elapsed=0:00:17.61    \nframe=   53 fps=2.9 q=60.0 size=       1KiB time=00:00:00.88 bitrate=   5.7kbits/s speed=0.0486x elapsed=0:00:18.15    \nframe=   54 fps=2.9 q=60.0 size=       1KiB time=00:00:00.90 bitrate=   5.6kbits/s speed=0.0481x elapsed=0:00:18.70    \nframe=   56 fps=2.9 q=60.0 size=       1KiB time=00:00:00.93 bitrate=   5.4kbits/s speed=0.0484x elapsed=0:00:19.26    \nframe=   58 fps=2.9 q=60.0 size=       1KiB time=00:00:00.96 bitrate=   5.2kbits/s speed=0.0486x elapsed=0:00:19.88    \nframe=   60 fps=2.9 q=60.0 size=       1KiB time=00:00:01.00 bitrate=   5.1kbits/s speed=0.0489x elapsed=0:00:20.46    \nframe=   61 fps=2.9 q=46.0 size=       1KiB time=00:00:01.01 bitrate=   5.0kbits/s speed=0.0483x elapsed=0:00:21.02    \nframe=   63 fps=2.9 q=60.0 size=       1KiB time=00:00:01.05 bitrate=   4.8kbits/s speed=0.0487x elapsed=0:00:21.58    \nframe=   65 fps=2.9 q=60.0 size=       1KiB time=00:00:01.08 bitrate=   4.7kbits/s speed=0.0489x elapsed=0:00:22.13    \nframe=   66 fps=2.9 q=60.0 size=       1KiB time=00:00:01.10 bitrate=   4.6kbits/s speed=0.0483x elapsed=0:00:22.77    \nframe=   68 fps=2.9 q=60.0 size=       1KiB time=00:00:01.13 bitrate=   4.5kbits/s speed=0.0485x elapsed=0:00:23.37    \nframe=   70 fps=2.9 q=60.0 size=       1KiB time=00:00:01.15 bitrate=   4.4kbits/s speed=0.048x elapsed=0:00:23.94    \nframe=   71 fps=2.9 q=60.0 size=       1KiB time=00:00:01.18 bitrate=   4.3kbits/s speed=0.0483x elapsed=0:00:24.51    \nframe=   73 fps=2.9 q=46.0 size=       1KiB time=00:00:01.21 bitrate=   4.2kbits/s speed=0.0486x elapsed=0:00:25.05    \nframe=   75 fps=2.9 q=60.0 size=       1KiB time=00:00:01.25 bitrate=   4.1kbits/s speed=0.0488x elapsed=0:00:25.63    \nframe=   77 fps=2.9 q=60.0 size=       1KiB time=00:00:01.28 bitrate=   3.9kbits/s speed=0.049x elapsed=0:00:26.17    \nframe=   78 fps=2.9 q=60.0 size=       1KiB time=00:00:01.30 bitrate=   3.9kbits/s speed=0.0486x elapsed=0:00:26.75    \nframe=   81 fps=3.0 q=60.0 size=       1KiB time=00:00:01.35 bitrate=   3.8kbits/s speed=0.0495x elapsed=0:00:27.29    \nframe=   83 fps=3.0 q=60.0 size=       1KiB time=00:00:01.38 bitrate=   3.7kbits/s speed=0.0497x elapsed=0:00:27.84    \nframe=   84 fps=3.0 q=60.0 size=       1KiB time=00:00:01.40 bitrate=   3.6kbits/s speed=0.0493x elapsed=0:00:28.39    \nframe=   86 fps=3.0 q=60.0 size=       1KiB time=00:00:01.43 bitrate=   3.5kbits/s speed=0.0495x elapsed=0:00:28.95    \nframe=   88 fps=3.0 q=60.0 size=       1KiB time=00:00:01.46 bitrate=   3.5kbits/s speed=0.0497x elapsed=0:00:29.52    \nframe=   90 fps=3.0 q=59.0 size=       1KiB time=00:00:01.50 bitrate=   3.4kbits/s speed=0.0498x elapsed=0:00:30.10    \nframe=   92 fps=3.0 q=59.0 size=       1KiB time=00:00:01.53 bitrate=   3.3kbits/s speed=0.05x elapsed=0:00:30.66    \nframe=   94 fps=3.0 q=60.0 size=       1KiB time=00:00:01.56 bitrate=   3.2kbits/s speed=0.0501x elapsed=0:00:31.24    \nframe=   96 fps=3.0 q=60.0 size=       1KiB time=00:00:01.60 bitrate=   3.2kbits/s speed=0.0503x elapsed=0:00:31.79    \nframe=   98 fps=3.0 q=59.0 size=       1KiB time=00:00:01.61 bitrate=   3.1kbits/s speed=0.05x elapsed=0:00:32.34    \nframe=   99 fps=3.0 q=59.0 size=       1KiB time=00:00:01.65 bitrate=   3.1kbits/s speed=0.0502x elapsed=0:00:32.89    \nframe=  101 fps=3.0 q=59.0 size=       1KiB time=00:00:01.68 bitrate=   3.0kbits/s speed=0.0504x elapsed=0:00:33.41    \nframe=  103 fps=3.0 q=45.0 size=       1KiB time=00:00:01.71 bitrate=   2.9kbits/s speed=0.0506x elapsed=0:00:33.95    \nframe=  105 fps=3.0 q=59.0 size=       1KiB time=00:00:01.75 bitrate=   2.9kbits/s speed=0.0507x elapsed=0:00:34.52    \nframe=  107 fps=3.0 q=59.0 size=       1KiB time=00:00:01.78 bitrate=   2.8kbits/s speed=0.0508x elapsed=0:00:35.09    \nframe=  108 fps=3.0 q=59.0 size=       1KiB time=00:00:01.80 bitrate=   2.8kbits/s speed=0.0505x elapsed=0:00:35.64    \nframe=  110 fps=3.0 q=59.0 size=       1KiB time=00:00:01.83 bitrate=   2.8kbits/s speed=0.0507x elapsed=0:00:36.16    \nframe=  113 fps=3.1 q=59.0 size=       1KiB time=00:00:01.88 bitrate=   2.7kbits/s speed=0.0513x elapsed=0:00:36.68    \nframe=  114 fps=3.1 q=59.0 size=       1KiB time=00:00:01.90 bitrate=   2.7kbits/s speed=0.051x elapsed=0:00:37.23    \nframe=  116 fps=3.1 q=59.0 size=       1KiB time=00:00:01.93 bitrate=   2.6kbits/s speed=0.0512x elapsed=0:00:37.75    \nframe=  118 fps=3.1 q=59.0 size=       1KiB time=00:00:01.96 bitrate=   2.6kbits/s speed=0.0513x elapsed=0:00:38.31    \nframe=  120 fps=3.1 q=59.0 size=       1KiB time=00:00:02.00 bitrate=   2.5kbits/s speed=0.0515x elapsed=0:00:38.85    \nframe=  122 fps=3.1 q=58.0 size=       1KiB time=00:00:02.03 bitrate=   2.5kbits/s speed=0.0516x elapsed=0:00:39.38    \nframe=  125 fps=3.1 q=58.0 size=       1KiB time=00:00:02.06 bitrate=   2.5kbits/s speed=0.0518x elapsed=0:00:39.90    \nframe=  127 fps=3.1 q=58.0 size=       1KiB time=00:00:02.11 bitrate=   2.4kbits/s speed=0.0523x elapsed=0:00:40.45    \nframe=  129 fps=3.1 q=45.0 size=       1KiB time=00:00:02.15 bitrate=   2.4kbits/s speed=0.0524x elapsed=0:00:41.00    \nframe=  131 fps=3.2 q=59.0 size=    2048KiB time=00:00:02.16 bitrate=7743.3kbits/s speed=0.0521x elapsed=0:00:41.57    \nframe=  132 fps=3.1 q=59.0 size=    2048KiB time=00:00:02.20 bitrate=7626.0kbits/s speed=0.0522x elapsed=0:00:42.17    \nframe=  134 fps=3.1 q=59.0 size=    2048KiB time=00:00:02.23 bitrate=7512.2kbits/s speed=0.0522x elapsed=0:00:42.79    \nframe=  135 fps=3.1 q=44.0 size=    2048KiB time=00:00:02.25 bitrate=7456.5kbits/s speed=0.0518x elapsed=0:00:43.46    \nframe=  136 fps=3.1 q=59.0 size=    2048KiB time=00:00:02.26 bitrate=7401.7kbits/s speed=0.0515x elapsed=0:00:44.04    \nframe=  139 fps=3.1 q=59.0 size=    2048KiB time=00:00:02.31 bitrate=7242.0kbits/s speed=0.052x elapsed=0:00:44.58    \nframe=  140 fps=3.1 q=59.0 size=    2048KiB time=00:00:02.33 bitrate=7190.2kbits/s speed=0.0517x elapsed=0:00:45.16    \nframe=  142 fps=3.1 q=59.0 size=    2048KiB time=00:00:02.36 bitrate=7089.0kbits/s speed=0.0518x elapsed=0:00:45.71    \nframe=  144 fps=3.1 q=59.0 size=    2048KiB time=00:00:02.40 bitrate=6990.5kbits/s speed=0.0519x elapsed=0:00:46.28    \nframe=  146 fps=3.1 q=59.0 size=    2048KiB time=00:00:02.43 bitrate=6894.7kbits/s speed=0.052x elapsed=0:00:46.82    \nframe=  148 fps=3.1 q=59.0 size=    2048KiB time=00:00:02.46 bitrate=6801.6kbits/s speed=0.0521x elapsed=0:00:47.37    \nframe=  149 fps=3.1 q=59.0 size=    2048KiB time=00:00:02.48 bitrate=6755.9kbits/s speed=0.0518x elapsed=0:00:47.93    \nframe=  151 fps=3.1 q=59.0 size=    2048KiB time=00:00:02.51 bitrate=6666.4kbits/s speed=0.0519x elapsed=0:00:48.52    \nframe=  152 fps=3.1 q=59.0 size=    2048KiB time=00:00:02.53 bitrate=6622.6kbits/s speed=0.0516x elapsed=0:00:49.10    \nframe=  154 fps=3.1 q=59.0 size=    2048KiB time=00:00:02.56 bitrate=6536.6kbits/s speed=0.0517x elapsed=0:00:49.64    \nframe=  156 fps=3.1 q=59.0 size=    2048KiB time=00:00:02.60 bitrate=6452.8kbits/s speed=0.0517x elapsed=0:00:50.25    \nframe=  158 fps=3.1 q=59.0 size=    2048KiB time=00:00:02.63 bitrate=6371.1kbits/s speed=0.0518x elapsed=0:00:50.81    \nframe=  160 fps=3.1 q=59.0 size=    2048KiB time=00:00:02.66 bitrate=6291.5kbits/s speed=0.0519x elapsed=0:00:51.35    \nframe=  161 fps=3.1 q=59.0 size=    2048KiB time=00:00:02.68 bitrate=6252.4kbits/s speed=0.0517x elapsed=0:00:51.93    \nframe=  163 fps=3.1 q=59.0 size=    2048KiB time=00:00:02.71 bitrate=6175.7kbits/s speed=0.0518x elapsed=0:00:52.48    \nframe=  164 fps=3.1 q=59.0 size=    2048KiB time=00:00:02.73 bitrate=6138.0kbits/s speed=0.0515x elapsed=0:00:53.06    \nframe=  166 fps=3.1 q=59.0 size=    2048KiB time=00:00:02.76 bitrate=6064.1kbits/s speed=0.0516x elapsed=0:00:53.60    \nframe=  168 fps=3.1 q=59.0 size=    2048KiB time=00:00:02.80 bitrate=5991.9kbits/s speed=0.0517x elapsed=0:00:54.14    \nframe=  170 fps=3.1 q=59.0 size=    2048KiB time=00:00:02.83 bitrate=5921.4kbits/s speed=0.0518x elapsed=0:00:54.67    \nframe=  172 fps=3.1 q=59.0 size=    2048KiB time=00:00:02.86 bitrate=5852.5kbits/s speed=0.0519x elapsed=0:00:55.20    \nframe=  173 fps=3.1 q=58.0 size=    2048KiB time=00:00:02.88 bitrate=5818.7kbits/s speed=0.0517x elapsed=0:00:55.73    \nframe=  175 fps=3.1 q=58.0 size=    2048KiB time=00:00:02.91 bitrate=5752.2kbits/s speed=0.0518x elapsed=0:00:56.28    \nframe=  176 fps=3.1 q=58.0 size=    2048KiB time=00:00:02.93 bitrate=5719.5kbits/s speed=0.0516x elapsed=0:00:56.82    \nframe=  178 fps=3.1 q=58.0 size=    2048KiB time=00:00:02.96 bitrate=5655.2kbits/s speed=0.0517x elapsed=0:00:57.34    \nframe=  181 fps=3.1 q=58.0 size=    2048KiB time=00:00:03.01 bitrate=5561.5kbits/s speed=0.0521x elapsed=0:00:57.87    \nframe=  182 fps=3.1 q=58.0 size=    2048KiB time=00:00:03.03 bitrate=5531.0kbits/s speed=0.0518x elapsed=0:00:58.51    \nframe=  184 fps=3.1 q=58.0 size=    2048KiB time=00:00:03.06 bitrate=5470.8kbits/s speed=0.0519x elapsed=0:00:59.13    \nframe=  186 fps=3.1 q=58.0 size=    2048KiB time=00:00:03.10 bitrate=5412.0kbits/s speed=0.0519x elapsed=0:00:59.70    \nframe=  188 fps=3.1 q=58.0 size=    2048KiB time=00:00:03.13 bitrate=5354.4kbits/s speed=0.052x elapsed=0:01:00.31    \nframe=  190 fps=3.1 q=55.0 size=    2048KiB time=00:00:03.16 bitrate=5298.1kbits/s speed=0.052x elapsed=0:01:00.88    \nframe=  191 fps=3.1 q=56.0 size=    2048KiB time=00:00:03.18 bitrate=5270.3kbits/s speed=0.0518x elapsed=0:01:01.44    \nframe=  193 fps=3.1 q=56.0 size=    2048KiB time=00:00:03.21 bitrate=5215.7kbits/s speed=0.0519x elapsed=0:01:01.99    \nframe=  195 fps=3.1 q=56.0 size=    2048KiB time=00:00:03.23 bitrate=5188.8kbits/s speed=0.0516x elapsed=0:01:02.61    \nframe=  196 fps=3.1 q=56.0 size=    2048KiB time=00:00:03.26 bitrate=5135.9kbits/s speed=0.0517x elapsed=0:01:03.17    \nframe=  198 fps=3.1 q=56.0 size=    2048KiB time=00:00:03.30 bitrate=5084.0kbits/s speed=0.0518x elapsed=0:01:03.70    \nframe=  200 fps=3.1 q=41.0 size=    2048KiB time=00:00:03.33 bitrate=5033.2kbits/s speed=0.0519x elapsed=0:01:04.23    \nframe=  201 fps=3.1 q=56.0 size=    2048KiB time=00:00:03.35 bitrate=5008.1kbits/s speed=0.0517x elapsed=0:01:04.78    \nframe=  203 fps=3.1 q=55.0 size=    2048KiB time=00:00:03.38 bitrate=4958.8kbits/s speed=0.0517x elapsed=0:01:05.37    \nframe=  204 fps=3.1 q=55.0 size=    2048KiB time=00:00:03.40 bitrate=4934.5kbits/s speed=0.0516x elapsed=0:01:05.91    \nframe=  206 fps=3.1 q=55.0 size=    2048KiB time=00:00:03.43 bitrate=4886.6kbits/s speed=0.0516x elapsed=0:01:06.49    \nframe=  208 fps=3.1 q=55.0 size=    2048KiB time=00:00:03.46 bitrate=4839.6kbits/s speed=0.0517x elapsed=0:01:07.01    \nframe=  210 fps=3.1 q=55.0 size=    2048KiB time=00:00:03.50 bitrate=4793.5kbits/s speed=0.0518x elapsed=0:01:07.54    \nframe=  211 fps=3.1 q=55.0 size=    2048KiB time=00:00:03.51 bitrate=4770.8kbits/s speed=0.0517x elapsed=0:01:08.07    \nframe=  213 fps=3.1 q=55.0 size=    2048KiB time=00:00:03.55 bitrate=4726.0kbits/s speed=0.0517x elapsed=0:01:08.64    \nframe=  214 fps=3.1 q=55.0 size=    2048KiB time=00:00:03.56 bitrate=4703.9kbits/s speed=0.0515x elapsed=0:01:09.20    \nframe=  217 fps=3.1 q=55.0 size=    2048KiB time=00:00:03.60 bitrate=4660.3kbits/s speed=0.0516x elapsed=0:01:09.72    \nframe=  219 fps=3.1 q=55.0 size=    2048KiB time=00:00:03.65 bitrate=4596.5kbits/s speed=0.0519x elapsed=0:01:10.26    \nframe=  220 fps=3.1 q=55.0 size=    2048KiB time=00:00:03.66 bitrate=4575.6kbits/s speed=0.0517x elapsed=0:01:10.85    \nframe=  222 fps=3.1 q=55.0 size=    2048KiB time=00:00:03.68 bitrate=4554.9kbits/s speed=0.0515x elapsed=0:01:11.47    \nframe=  223 fps=3.1 q=55.0 size=    2048KiB time=00:00:03.71 bitrate=4514.0kbits/s speed=0.0516x elapsed=0:01:12.01    \nframe=  225 fps=3.1 q=55.0 size=    2048KiB time=00:00:03.75 bitrate=4473.9kbits/s speed=0.0517x elapsed=0:01:12.56    \nframe=  227 fps=3.1 q=55.0 size=    2048KiB time=00:00:03.78 bitrate=4434.5kbits/s speed=0.0517x elapsed=0:01:13.11    \nframe=  228 fps=3.1 q=55.0 size=    2048KiB time=00:00:03.80 bitrate=4415.1kbits/s speed=0.0516x elapsed=0:01:13.67    \nframe=  230 fps=3.1 q=55.0 size=    2048KiB time=00:00:03.83 bitrate=4376.7kbits/s speed=0.0516x elapsed=0:01:14.23    \nframe=  232 fps=3.1 q=55.0 size=    2048KiB time=00:00:03.86 bitrate=4338.9kbits/s speed=0.0517x elapsed=0:01:14.83    \nframe=  234 fps=3.1 q=55.0 size=    2048KiB time=00:00:03.90 bitrate=4301.9kbits/s speed=0.0517x elapsed=0:01:15.38    \nframe=  235 fps=3.1 q=55.0 size=    2048KiB time=00:00:03.91 bitrate=4283.5kbits/s speed=0.0516x elapsed=0:01:15.95    \nframe=  237 fps=3.1 q=56.0 size=    2048KiB time=00:00:03.95 bitrate=4247.4kbits/s speed=0.0516x elapsed=0:01:16.51    \nframe=  239 fps=3.1 q=56.0 size=    2048KiB time=00:00:03.98 bitrate=4211.9kbits/s speed=0.0516x elapsed=0:01:17.12    \nframe=  241 fps=3.1 q=56.0 size=    2048KiB time=00:00:04.01 bitrate=4176.9kbits/s speed=0.0517x elapsed=0:01:17.72    \nframe=  243 fps=3.1 q=56.0 size=    2048KiB time=00:00:04.05 bitrate=4142.5kbits/s speed=0.0517x elapsed=0:01:18.30    \nframe=  245 fps=3.1 q=56.0 size=    2048KiB time=00:00:04.08 bitrate=4108.7kbits/s speed=0.0518x elapsed=0:01:18.88    \nframe=  247 fps=3.1 q=55.0 size=    2048KiB time=00:00:04.11 bitrate=4075.4kbits/s speed=0.0518x elapsed=0:01:19.44    \nframe=  248 fps=3.1 q=55.0 size=    2048KiB time=00:00:04.13 bitrate=4059.0kbits/s speed=0.0517x elapsed=0:01:20.02    \nframe=  250 fps=3.1 q=55.0 size=    2048KiB time=00:00:04.16 bitrate=4026.5kbits/s speed=0.0517x elapsed=0:01:20.54    \nframe=  252 fps=3.1 q=55.0 size=    2048KiB time=00:00:04.20 bitrate=3994.6kbits/s speed=0.0518x elapsed=0:01:21.10    \nframe=  254 fps=3.1 q=55.0 size=    2048KiB time=00:00:04.23 bitrate=3963.1kbits/s speed=0.0519x elapsed=0:01:21.63    \nframe=  256 fps=3.1 q=55.0 size=    2048KiB time=00:00:04.26 bitrate=3932.2kbits/s speed=0.0519x elapsed=0:01:22.15    \nframe=  258 fps=3.1 q=55.0 size=    4096KiB time=00:00:04.30 bitrate=7803.4kbits/s speed=0.052x elapsed=0:01:22.67    \nframe=  260 fps=3.1 q=54.0 size=    4096KiB time=00:00:04.33 bitrate=7743.3kbits/s speed=0.052x elapsed=0:01:23.30    \nframe=  262 fps=3.1 q=54.0 size=    4096KiB time=00:00:04.35 bitrate=7713.7kbits/s speed=0.0519x elapsed=0:01:23.87    \nframe=  264 fps=3.1 q=54.0 size=    4096KiB time=00:00:04.40 bitrate=7626.0kbits/s speed=0.0521x elapsed=0:01:24.46    \nframe=  266 fps=3.1 q=54.0 size=    4096KiB time=00:00:04.43 bitrate=7568.7kbits/s speed=0.0521x elapsed=0:01:25.02    \nframe=  268 fps=3.1 q=54.0 size=    4096KiB time=00:00:04.46 bitrate=7512.2kbits/s speed=0.0522x elapsed=0:01:25.57    \nframe=  270 fps=3.1 q=55.0 size=    4096KiB time=00:00:04.50 bitrate=7456.5kbits/s speed=0.0523x elapsed=0:01:26.10    \nframe=  271 fps=3.1 q=54.0 size=    4096KiB time=00:00:04.51 bitrate=7429.0kbits/s speed=0.0521x elapsed=0:01:26.66    \nframe=  273 fps=3.1 q=55.0 size=    4096KiB time=00:00:04.55 bitrate=7374.6kbits/s speed=0.0522x elapsed=0:01:27.20    \nframe=  275 fps=3.1 q=55.0 size=    4096KiB time=00:00:04.58 bitrate=7321.0kbits/s speed=0.0522x elapsed=0:01:27.77    \nframe=  276 fps=3.1 q=55.0 size=    4096KiB time=00:00:04.60 bitrate=7294.4kbits/s speed=0.0521x elapsed=0:01:28.31    \nframe=  276 fps=3.1 q=55.0 size=    4096KiB time=00:00:04.60 bitrate=7294.4kbits/s speed=0.0517x elapsed=0:01:28.89    \nframe=  276 fps=3.1 q=55.0 size=    4096KiB time=00:00:04.60 bitrate=7294.4kbits/s speed=0.0514x elapsed=0:01:29.48    \nframe=  276 fps=3.1 q=55.0 size=    4096KiB time=00:00:04.60 bitrate=7294.4kbits/s speed=0.0511x elapsed=0:01:30.00    \nframe=  276 fps=3.0 q=55.0 size=    4096KiB time=00:00:04.60 bitrate=7294.4kbits/s speed=0.0508x elapsed=0:01:30.52    \nframe=  276 fps=3.0 q=55.0 size=    4096KiB time=00:00:04.60 bitrate=7294.4kbits/s speed=0.0505x elapsed=0:01:31.05    \nframe=  276 fps=3.0 q=55.0 size=    4096KiB time=00:00:04.60 bitrate=7294.4kbits/s speed=0.0502x elapsed=0:01:31.60    \nframe=  276 fps=3.0 q=55.0 size=    4096KiB time=00:00:04.60 bitrate=7294.4kbits/s speed=0.0499x elapsed=0:01:32.16    \nframe=  276 fps=3.0 q=55.0 size=    4096KiB time=00:00:04.60 bitrate=7294.4kbits/s speed=0.0496x elapsed=0:01:32.71    \nframe=  276 fps=3.0 q=55.0 size=    4096KiB time=00:00:04.60 bitrate=7294.4kbits/s speed=0.0493x elapsed=0:01:33.23    \nframe=  276 fps=2.9 q=55.0 size=    4096KiB time=00:00:04.60 bitrate=7294.4kbits/s speed=0.0491x elapsed=0:01:33.76    \n[out#0/webm @ 000001ee13409040] video:4776KiB audio:0KiB subtitle:0KiB other streams:0KiB global headers:0KiB muxing overhead: 0.058623%\nframe=  300 fps=3.2 q=53.0 Lsize=    4779KiB time=00:00:05.00 bitrate=7829.5kbits/s speed=0.0531x elapsed=0:01:34.17    \n",
  "seconds": 95.01038670539856,
  "probe_out": {}
}